<svg width="115" height="74" viewBox="0 0 115 74" fill="none" xmlns="http://www.w3.org/2000/svg">
<path d="M25.2 73.2C20.2 73.2 15.4833 71.6833 11.05 68.65C6.61667 65.6167 3.2 61.4333 0.8 56.1L14.7 49.8C16.1 52.3 17.6333 54.2833 19.3 55.75C21 57.1833 22.9667 57.9 25.2 57.9C26.3333 57.9 27.4167 57.7333 28.45 57.4C29.4833 57.0333 30.4 56.4167 31.2 55.55C32.0333 54.6833 32.6833 53.4833 33.15 51.95C33.65 50.3833 33.9 48.4 33.9 46V2H49.8V47.1C49.8 52.1667 49.05 56.3833 47.55 59.75C46.05 63.1167 44.0667 65.7833 41.6 67.75C39.1667 69.7167 36.5167 71.1167 33.65 71.95C30.7833 72.7833 27.9667 73.2 25.2 73.2ZM88.243 73.2C83.6763 73.2 79.5096 72.3667 75.743 70.7C72.0096 69.0333 68.7763 66.65 66.043 63.55C63.343 60.4167 61.2763 56.6667 59.843 52.3L73.943 47C75.5096 50.3 77.5763 53.0167 80.143 55.15C82.7096 57.25 85.543 58.3 88.643 58.3C91.743 58.3 94.2263 57.7333 96.093 56.6C97.993 55.4333 98.943 53.7333 98.943 51.5C98.943 50.0333 98.393 48.8167 97.293 47.85C96.2263 46.8833 94.7096 46.0333 92.743 45.3C90.8096 44.5333 88.543 43.7333 85.943 42.9C83.3096 42.0333 80.6263 41.0833 77.893 40.05C75.1596 39.0167 72.643 37.7167 70.343 36.15C68.0763 34.55 66.243 32.5167 64.843 30.05C63.443 27.5833 62.743 24.5 62.743 20.8C62.743 17.1667 63.7096 13.8333 65.643 10.8C67.5763 7.76666 70.3763 5.35 74.043 3.55C77.743 1.71666 82.2096 0.799999 87.443 0.799999C91.7763 0.799999 95.6263 1.6 98.993 3.2C102.36 4.76666 105.143 6.9 107.343 9.6C109.576 12.3 111.143 15.3333 112.043 18.7L98.043 23.3C97.043 21.1333 95.6763 19.3333 93.943 17.9C92.243 16.4333 89.8096 15.7 86.643 15.7C84.0096 15.7 81.9763 16.1667 80.543 17.1C79.143 18 78.443 19.3333 78.443 21.1C78.443 22.1667 78.9263 23.1 79.893 23.9C80.8596 24.6667 82.2096 25.3833 83.943 26.05C85.6763 26.7167 87.7096 27.4333 90.043 28.2C93.0096 29.1667 95.943 30.2333 98.843 31.4C101.776 32.5667 104.426 34 106.793 35.7C109.193 37.4 111.093 39.5333 112.493 42.1C113.926 44.6667 114.643 47.8333 114.643 51.6C114.643 56.1667 113.46 60.0667 111.093 63.3C108.76 66.5 105.593 68.95 101.593 70.65C97.6263 72.35 93.1763 73.2 88.243 73.2Z" fill="url(#paint0_linear_211_3)"/>
<defs>
<linearGradient id="paint0_linear_211_3" x1="0" y1="102" x2="119" y2="102" gradientUnits="userSpaceOnUse">
<stop stop-color="#CD9460"/>
<stop offset="1" stop-color="#8B4513"/>
</linearGradient>
</defs>
</svg>
